Coordinates
version=1
nRows=36
nColumns=38
inDegrees=no

Units are S.I. units (second, meters, Newtons, ...)
If the header above contains a line with 'inDegrees', this indicates whether rotational values are in degrees (yes) or radians (no).

endheader
time	pelvis_tilt	pelvis_list	pelvis_rotation	pelvis_tx	pelvis_ty	pelvis_tz	hip_flexion_r	hip_adduction_r	hip_rotation_r	knee_angle_r	ankle_angle_r	subtalar_angle_r	mtp_angle_r	hip_flexion_l	hip_adduction_l	hip_rotation_l	knee_angle_l	ankle_angle_l	subtalar_angle_l	mtp_angle_l	lumbar_extension	lumbar_bending	lumbar_rotation	arm_flex_r	arm_add_r	arm_rot_r	elbow_flex_r	pro_sup_r	wrist_flex_r	wrist_dev_r	arm_flex_l	arm_add_l	arm_rot_l	elbow_flex_l	pro_sup_l	wrist_flex_l	wrist_dev_l
5.95	3.06834	1.50034	1.64868	0.719112	-0.463176	0.957984	-0.0189588	-0.0126906	-0.20137	0.0383804	0.0113946	0	0	-0.0587679	0.00923132	-0.166725	0.0248887	0.0609488	0	0	0.0868154	0.00932827	0.00241053	-0.180131	-0.0914147	-0.152788	0.479644	1.55677	0	0	-0.060832	-0.17378	0.601342	0.49512	1.0472	0	0
5.96	3.06765	1.50056	1.6496	0.718994	-0.463643	0.957941	-0.0202353	-0.0124349	-0.201158	0.0375648	0.0114912	0	0	-0.0600797	0.00923994	-0.165483	0.0238343	0.0607156	0	0	0.0868977	0.00893249	0.00283935	-0.180278	-0.0912545	-0.152792	0.479105	1.55668	0	0	-0.0603064	-0.173366	0.600458	0.494585	1.04878	0	0
5.97	3.06555	1.50064	1.65201	0.718875	-0.464113	0.957873	-0.0212792	-0.0123285	-0.201182	0.0369632	0.011797	0	0	-0.0612438	0.00934546	-0.164319	0.0227188	0.0603896	0	0	0.0869565	0.00831426	0.00316712	-0.180489	-0.091029	-0.152703	0.478757	1.55618	0	0	-0.0594153	-0.172751	0.598068	0.493619	1.0566	0	0
5.98	3.06546	1.50042	1.65255	0.718777	-0.464597	0.957785	-0.0221028	-0.0120875	-0.20107	0.0361608	0.0120042	0	0	-0.0618289	0.00923024	-0.163903	0.0221419	0.060562	0	0	0.0876109	0.00796771	0.00312375	-0.180826	-0.0908813	-0.152404	0.478445	1.55545	0	0	-0.0592242	-0.172114	0.596639	0.492397	1.06293	0	0
5.99	3.06653	1.5	1.65206	0.718699	-0.465067	0.9577	-0.022665	-0.0118259	-0.201132	0.0354159	0.0121933	0	0	-0.0617909	0.00905455	-0.164315	0.0222028	0.0608618	0	0	0.0887517	0.00773299	0.00263336	-0.180906	-0.0909169	-0.151266	0.47757	1.5549	0	0	-0.0596958	-0.171892	0.597446	0.491686	1.06339	0	0
6	-3.1391	1.50784	1.56802	0.71646	-0.466345	0.958239	-0.0350079	-0.00200102	-0.193073	0.0284551	0.00810803	0	0	-0.0801482	0.00204289	-0.154483	0.00732327	0.0545788	0	0	0.0818172	0.0114341	0.00886127	-0.18059	-0.0883139	-0.149052	0.475627	1.5525	0	0	-0.0605905	-0.175726	0.598285	0.495556	1.06736	0	0
6.01	-3.13854	1.508	1.56785	0.716335	-0.466797	0.958208	-0.0361643	-0.0016629	-0.193273	0.0277401	0.00836077	0	0	-0.0809935	0.00179876	-0.154264	0.00705065	0.054911	0	0	0.0819903	0.0111656	0.00917499	-0.18103	-0.0882154	-0.14833	0.475557	1.55135	0	0	-0.060188	-0.175337	0.597608	0.495205	1.07074	0	0
6.02	3.11175	1.50602	1.60262	0.715808	-0.467623	0.957852	-0.0362839	-0.00286374	-0.195083	0.0257679	0.00963626	0	0	-0.0799614	0.00315919	-0.152314	0.00643374	0.0548566	0	0	0.0849446	0.0109641	0.0173535	-0.189684	-0.0828803	-0.173929	0.482575	1.56593	0	0	-0.0307702	-0.165972	0.452092	0.43778	1.5708	0	0
6.03	3.06735	1.50015	1.65291	0.718226	-0.466804	0.957539	-0.0263138	-0.0107552	-0.201735	0.033221	0.0131926	0	0	-0.0642465	0.00840784	-0.163608	0.0213357	0.0615394	0	0	0.0897889	0.00681199	0.00320126	-0.182267	-0.0906352	-0.148137	0.477098	1.5506	0	0	-0.0584183	-0.165269	0.572907	0.481582	1.1228	0	0
6.04	3.06534	1.50021	1.65511	0.718083	-0.467248	0.957484	-0.0271816	-0.0106715	-0.201676	0.0327764	0.0135474	0	0	-0.0650032	0.00847472	-0.163694	0.0209719	0.0616387	0	0	0.0900668	0.00643717	0.00383198	-0.182826	-0.0903245	-0.148466	0.477193	1.55126	0	0	-0.058142	-0.166079	0.577333	0.482636	1.11595	0	0
6.05	3.06379	1.50032	1.65678	0.717936	-0.467686	0.957455	-0.0281265	-0.0105154	-0.201623	0.0322505	0.0138294	0	0	-0.0657156	0.00844353	-0.164078	0.020901	0.0619133	0	0	0.0902928	0.00612576	0.00447367	-0.183132	-0.090115	-0.148128	0.476889	1.55177	0	0	-0.0580058	-0.166445	0.579665	0.483107	1.11196	0	0
6.06	3.06403	1.50034	1.65663	0.717782	-0.468108	0.957423	-0.0289587	-0.0102176	-0.201466	0.0316794	0.01395	0	0	-0.0663082	0.00824175	-0.164151	0.0208376	0.0622927	0	0	0.0905846	0.0060451	0.00501779	-0.183517	-0.0898939	-0.148134	0.477	1.5521	0	0	-0.0582074	-0.166421	0.579948	0.483339	1.10925	0	0
6.07	3.06464	1.50033	1.6563	0.717654	-0.468475	0.957389	-0.0296897	-0.00992124	-0.2013	0.0311536	0.0139534	0	0	-0.0666267	0.00807172	-0.163847	0.0209718	0.0623936	0	0	0.0907927	0.0060123	0.00510097	-0.183522	-0.0898972	-0.147592	0.476968	1.55298	0	0	-0.0585079	-0.16641	0.579777	0.48365	1.10625	0	0
6.08	3.06589	1.50038	1.65549	0.717552	-0.468792	0.957352	-0.0304037	-0.00962265	-0.201328	0.0306822	0.0139965	0	0	-0.066758	0.00784714	-0.163446	0.0213825	0.0624317	0	0	0.090888	0.00600066	0.00502238	-0.183309	-0.0900666	-0.147059	0.476939	1.55547	0	0	-0.0586288	-0.166474	0.579979	0.483835	1.10411	0	0
6.09	3.06919	1.50037	1.65243	0.717424	-0.469156	0.957297	-0.0312138	-0.00913221	-0.20121	0.02996	0.0140847	0	0	-0.0670293	0.00740173	-0.163192	0.0216906	0.0626171	0	0	0.0911932	0.00620581	0.00535764	-0.183413	-0.0901596	-0.146913	0.47699	1.55699	0	0	-0.0587717	-0.166429	0.580086	0.483711	1.10326	0	0
6.1	3.07337	1.50051	1.64843	0.717283	-0.469535	0.957258	-0.0322715	-0.00851279	-0.201061	0.0290923	0.0141368	0	0	-0.0678212	0.00692672	-0.162029	0.0212394	0.0629415	0	0	0.0913992	0.00649675	0.00589962	-0.183661	-0.0900811	-0.147004	0.476818	1.55815	0	0	-0.0589255	-0.166189	0.579366	0.483451	1.1026	0	0
6.11	3.07647	1.50049	1.64564	0.717143	-0.469868	0.957227	-0.033041	-0.00800533	-0.201061	0.0284002	0.0142302	0	0	-0.06812	0.00647877	-0.161408	0.0212508	0.0634918	0	0	0.0916976	0.00662997	0.00623756	-0.183678	-0.089881	-0.146654	0.47608	1.55639	0	0	-0.059094	-0.166027	0.578616	0.483254	1.10201	0	0
6.12	3.07779	1.50064	1.64439	0.717006	-0.470228	0.957213	-0.0342111	-0.00762281	-0.200383	0.0272901	0.0140717	0	0	-0.068756	0.00624549	-0.160979	0.0211257	0.0636669	0	0	0.0918121	0.00678856	0.00668017	-0.183667	-0.0899861	-0.145777	0.475618	1.55466	0	0	-0.0596445	-0.166061	0.579007	0.483423	1.09836	0	0
6.13	3.07786	1.50054	1.64438	0.716876	-0.470602	0.957192	-0.0351505	-0.00735944	-0.199606	0.026136	0.013805	0	0	-0.0689898	0.00614034	-0.161333	0.0213186	0.063747	0	0	0.0922248	0.00695194	0.0070725	-0.183732	-0.0902438	-0.144776	0.475326	1.55376	0	0	-0.0607535	-0.166312	0.580634	0.483917	1.08981	0	0
6.14	3.07757	1.5004	1.64485	0.716724	-0.470974	0.957157	-0.0359077	-0.00711629	-0.199199	0.0253126	0.0136924	0	0	-0.0692306	0.00597185	-0.161781	0.0213621	0.0639117	0	0	0.0926906	0.00692108	0.0074558	-0.183901	-0.0902689	-0.144406	0.475175	1.5537	0	0	-0.0615299	-0.166841	0.582385	0.485023	1.0818	0	0
6.15	3.07795	1.50076	1.64457	0.716566	-0.471297	0.957154	-0.0369062	-0.00682047	-0.198962	0.0249063	0.0138729	0	0	-0.0703258	0.00575502	-0.161074	0.020672	0.0638762	0	0	0.0923858	0.0069231	0.00794919	-0.18391	-0.0902913	-0.14419	0.475209	1.5541	0	0	-0.0617406	-0.16749	0.584245	0.486393	1.07561	0	0
6.16	3.07797	1.5008	1.64456	0.716394	-0.471628	0.957139	-0.0373482	-0.00659265	-0.198942	0.02493	0.0143059	0	0	-0.071062	0.00554123	-0.160839	0.0200678	0.0639561	0	0	0.0925256	0.00683987	0.00846225	-0.183999	-0.0902594	-0.144003	0.475082	1.55461	0	0	-0.0620653	-0.168088	0.585461	0.48763	1.07172	0	0
6.17	3.07668	1.50035	1.64599	0.716232	-0.471952	0.957087	-0.0371979	-0.00653811	-0.199016	0.0250282	0.014679	0	0	-0.0710621	0.00544505	-0.161352	0.0198038	0.0641096	0	0	0.0933115	0.00664458	0.00871666	-0.184081	-0.0901804	-0.143725	0.474635	1.55499	0	0	-0.0627524	-0.168477	0.585541	0.488699	1.06942	0	0
6.18	-3.13076	1.5079	1.56306	0.713949	-0.473083	0.957629	-0.0484409	0.0027597	-0.190466	0.0191754	0.010849	0	0	-0.089324	-0.00126377	-0.151704	0.00437802	0.0572739	0	0	0.0863509	0.0106625	0.0155851	-0.183588	-0.0874252	-0.143753	0.47303	1.55586	0	0	-0.06451	-0.172949	0.587586	0.493895	1.0656	0	0
6.19	3.07306	1.50067	1.64965	0.715955	-0.472464	0.957056	-0.0383379	-0.00653881	-0.197869	0.0247378	0.0150882	0	0	-0.0726047	0.00555048	-0.160282	0.018622	0.0634734	0	0	0.0928116	0.00644346	0.00905535	-0.183368	-0.0902383	-0.14285	0.473803	1.5559	0	0	-0.0634013	-0.169331	0.587201	0.490834	1.06432	0	0
6.2	3.07486	1.50018	1.64804	0.715813	-0.472675	0.956994	-0.037778	-0.00628995	-0.198403	0.0252801	0.0156316	0	0	-0.0717729	0.00519691	-0.16063	0.0196876	0.0643828	0	0	0.0932669	0.00653663	0.00884877	-0.183051	-0.0903695	-0.14188	0.473362	1.55572	0	0	-0.0637415	-0.169336	0.586714	0.490971	1.06409	0	0
6.21	3.07756	1.49978	1.64565	0.715645	-0.472903	0.956952	-0.0374969	-0.00588584	-0.198744	0.0255141	0.0159611	0	0	-0.071216	0.00469002	-0.161188	0.0203265	0.0651061	0	0	0.0937376	0.00659677	0.00860741	-0.18284	-0.0904404	-0.140818	0.4729	1.55517	0	0	-0.0640269	-0.16952	0.586665	0.491201	1.06403	0	0
6.22	3.07906	1.49973	1.64468	0.71551	-0.473075	0.956938	-0.0377054	-0.00553851	-0.199145	0.0255144	0.0162764	0	0	-0.0709904	0.00432157	-0.161106	0.0209259	0.0657089	0	0	0.0936209	0.00657598	0.00830758	-0.182598	-0.0904724	-0.139983	0.472679	1.5546	0	0	-0.0637073	-0.169628	0.586522	0.491235	1.06509	0	0
6.23	3.07827	1.49974	1.6459	0.715367	-0.473276	0.956911	-0.0381786	-0.00538199	-0.199288	0.025274	0.0166021	0	0	-0.071151	0.00421015	-0.160863	0.0209877	0.0659583	0	0	0.093378	0.00642719	0.00819938	-0.182648	-0.0903872	-0.13972	0.472849	1.55388	0	0	-0.0631958	-0.169637	0.585768	0.491015	1.06935	0	0
6.24	3.07727	1.49956	1.64691	0.715213	-0.473538	0.956874	-0.0384673	-0.00529887	-0.198919	0.024941	0.0167644	0	0	-0.0716852	0.00424743	-0.160408	0.0201238	0.0655855	0	0	0.0935161	0.00647002	0.00846309	-0.182961	-0.0903157	-0.139978	0.473019	1.55347	0	0	-0.063516	-0.169447	0.585643	0.490489	1.06891	0	0
6.25	3.07821	1.49958	1.64581	0.715047	-0.473835	0.95684	-0.0390818	-0.00488346	-0.198652	0.0243392	0.0167895	0	0	-0.072733	0.00410104	-0.159674	0.018847	0.0651165	0	0	0.0936684	0.00658275	0.00866508	-0.183212	-0.0904621	-0.139213	0.472893	1.55282	0	0	-0.0639121	-0.169323	0.585884	0.490216	1.06684	0	0
6.26	3.07839	1.49951	1.64588	0.714907	-0.474003	0.956822	-0.039338	-0.00466369	-0.198787	0.0241819	0.0168996	0	0	-0.0729228	0.00392718	-0.159195	0.0186729	0.0651673	0	0	0.0936199	0.00649979	0.00834557	-0.183058	-0.0905203	-0.138324	0.472645	1.55195	0	0	-0.0638309	-0.169295	0.586241	0.489951	1.06549	0	0
6.27	3.07754	1.49912	1.64714	0.714752	-0.474119	0.956792	-0.0391612	-0.00454987	-0.198989	0.0241047	0.0170762	0	0	-0.0723622	0.00369794	-0.159343	0.0190769	0.0655467	0	0	0.0937257	0.00630579	0.00814408	-0.183052	-0.0902864	-0.138484	0.472581	1.55152	0	0	-0.0635438	-0.169336	0.586618	0.489699	1.06502	0	0
6.28	3.07641	1.4988	1.64856	0.714592	-0.474269	0.956746	-0.039047	-0.00446329	-0.199191	0.0240807	0.0173745	0	0	-0.0719644	0.00347893	-0.159692	0.0194502	0.0658758	0	0	0.0939529	0.00608312	0.00803213	-0.183153	-0.0900667	-0.138532	0.472445	1.55115	0	0	-0.0633291	-0.16944	0.587167	0.489494	1.06465	0	0
6.29	3.07731	1.49867	1.64775	0.714426	-0.474457	0.956698	-0.039322	-0.00416065	-0.199083	0.0236714	0.0175005	0	0	-0.0719083	0.00319918	-0.16004	0.0196407	0.0661339	0	0	0.094142	0.00601154	0.00772866	-0.183179	-0.0899979	-0.138065	0.47219	1.55082	0	0	-0.0632595	-0.169533	0.587321	0.489581	1.06524	0	0
6.3	3.0789	1.49862	1.64616	0.714243	-0.474667	0.956659	-0.0398254	-0.00375565	-0.198902	0.0230318	0.0175142	0	0	-0.072124	0.00288115	-0.160082	0.0195986	0.0664066	0	0	0.0943402	0.00598811	0.0075574	-0.183508	-0.0898579	-0.137915	0.472297	1.55043	0	0	-0.0632116	-0.169518	0.586813	0.489697	1.06742	0	0
